HIERARCHY
ROOT Hips
{
	OFFSET -0.726467 86.094116 2.458319
	CHANNELS 6 Xposition Yposition Zposition Zrotation Yrotation Xrotation 
	JOINT Spine
	{
		OFFSET -0.000000 8.814246 -2.080107
		CHANNELS 3 Zrotation Yrotation Xrotation
		JOINT Spine1
		{
			OFFSET -0.000000 8.844141 -0.000000
			CHANNELS 3 Zrotation Yrotation Xrotation
			JOINT Spine2
			{
				OFFSET -0.000000 11.682268 -0.000000
				CHANNELS 3 Zrotation Yrotation Xrotation
				JOINT Spine3
				{
					OFFSET -0.000000 11.746700 0.000000
					CHANNELS 3 Zrotation Yrotation Xrotation
					JOINT Neck
					{
						OFFSET -0.000000 17.658264 -0.000000
						CHANNELS 3 Zrotation Yrotation Xrotation
						JOINT Neck1
						{
							OFFSET -0.000000 5.101515 0.000000
							CHANNELS 3 Zrotation Yrotation Xrotation
							JOINT Head
							{
								OFFSET -0.000000 5.101515 0.000000
								CHANNELS 3 Zrotation Yrotation Xrotation
								JOINT HeadEnd
								{
									OFFSET -0.000000 11.655085 0.000000
									CHANNELS 3 Zrotation Yrotation Xrotation
									End Site
									{
										OFFSET 0.000000 0.000000 0.000000
									}
								}
							}
						}
					}
					JOINT RightShoulder
					{
						OFFSET -2.625389 11.175210 -0.000000
						CHANNELS 3 Zrotation Yrotation Xrotation
						JOINT RightArm
						{
							OFFSET 0.000000 10.434715 -0.000000
							CHANNELS 3 Zrotation Yrotation Xrotation
							JOINT RightForeArm
							{
								OFFSET 0.000000 29.628420 -0.000000
								CHANNELS 3 Zrotation Yrotation Xrotation
								JOINT RightHand
								{
									OFFSET 0.000000 22.857611 0.000000
									CHANNELS 3 Zrotation Yrotation Xrotation
									JOINT RightHandThumb1
									{
										OFFSET -2.867323 3.959563 2.944291
										CHANNELS 3 Zrotation Yrotation Xrotation
										JOINT RightHandThumb2
										{
											OFFSET 0.000000 3.350399 0.000000
											CHANNELS 3 Zrotation Yrotation Xrotation
											JOINT RightHandThumb3
											{
												OFFSET -0.000000 3.756509 -0.000000
												CHANNELS 3 Zrotation Yrotation Xrotation
												JOINT RightHandThumb4
												{
													OFFSET 0.000000 3.147345 -0.000000
													CHANNELS 3 Zrotation Yrotation Xrotation
													End Site
													{
														OFFSET 0.000000 0.000000 0.000000
													}
												}
											}
										}
									}
									JOINT RightHandIndex1
									{
										OFFSET -0.086752 10.030893 2.345280
										CHANNELS 3 Zrotation Yrotation Xrotation
										JOINT RightHandIndex2
										{
											OFFSET 0.000000 4.061090 0.000000
											CHANNELS 3 Zrotation Yrotation Xrotation
											JOINT RightHandIndex3
											{
												OFFSET -0.000000 3.248873 -0.000000
												CHANNELS 3 Zrotation Yrotation Xrotation
												JOINT RightHandIndex4
												{
													OFFSET 0.000000 2.639709 -0.000000
													CHANNELS 3 Zrotation Yrotation Xrotation
													End Site
													{
														OFFSET 0.000000 0.000000 0.000000
													}
												}
											}
										}
									}
									JOINT RightHandMiddle1
									{
										OFFSET 0.104102 9.502952 0.006768
										CHANNELS 3 Zrotation Yrotation Xrotation
										JOINT RightHandMiddle2
										{
											OFFSET 0.000000 4.568727 0.000000
											CHANNELS 3 Zrotation Yrotation Xrotation
											JOINT RightHandMiddle3
											{
												OFFSET -0.000000 3.654981 -0.000000
												CHANNELS 3 Zrotation Yrotation Xrotation
												JOINT RightHandMiddle4
												{
													OFFSET 0.000000 2.741236 0.000000
													CHANNELS 3 Zrotation Yrotation Xrotation
													End Site
													{
														OFFSET 0.000000 0.000000 0.000000
													}
												}
											}
										}
									}
									JOINT RightHandRing1
									{
										OFFSET 0.086752 8.921708 -2.267442
										CHANNELS 3 Zrotation Yrotation Xrotation
										JOINT RightHandRing2
										{
											OFFSET 0.000000 4.061090 -0.000000
											CHANNELS 3 Zrotation Yrotation Xrotation
											JOINT RightHandRing3
											{
												OFFSET 0.000000 3.654981 0.000000
												CHANNELS 3 Zrotation Yrotation Xrotation
												JOINT RightHandRing4
												{
													OFFSET 0.000000 2.741236 -0.000000
													CHANNELS 3 Zrotation Yrotation Xrotation
													End Site
													{
														OFFSET 0.000000 0.000000 0.000000
													}
												}
											}
										}
									}
									JOINT RightHandPinky1
									{
										OFFSET -0.173504 7.976997 -4.467199
										CHANNELS 3 Zrotation Yrotation Xrotation
										JOINT RightHandPinky2
										{
											OFFSET 0.000000 3.350399 -0.000000
											CHANNELS 3 Zrotation Yrotation Xrotation
											JOINT RightHandPinky3
											{
												OFFSET -0.000000 2.842763 0.000000
												CHANNELS 3 Zrotation Yrotation Xrotation
												JOINT RightHandPinky4
												{
													OFFSET -0.000000 2.639709 -0.000000
													CHANNELS 3 Zrotation Yrotation Xrotation
													End Site
													{
														OFFSET 0.000000 0.000000 0.000000
													}
												}
											}
										}
									}
									JOINT RightForeArmEnd
									{
										OFFSET 0.000000 0.000000 0.000000
										CHANNELS 3 Zrotation Yrotation Xrotation
										End Site
										{
											OFFSET 0.000000 0.000000 0.000000
										}
									}
								}
								JOINT RightArmEnd
								{
									OFFSET 0.000000 0.000000 0.000000
									CHANNELS 3 Zrotation Yrotation Xrotation
									End Site
									{
										OFFSET 0.000000 0.000000 0.000000
									}
								}
							}
						}
					}
					JOINT LeftShoulder
					{
						OFFSET 2.625389 11.175210 -0.000000
						CHANNELS 3 Zrotation Yrotation Xrotation
						JOINT LeftArm
						{
							OFFSET -0.000000 10.813635 0.000000
							CHANNELS 3 Zrotation Yrotation Xrotation
							JOINT LeftForeArm
							{
								OFFSET -0.000000 28.724781 -0.000000
								CHANNELS 3 Zrotation Yrotation Xrotation
								JOINT LeftHand
								{
									OFFSET 0.644384 25.716167 -0.328871
									CHANNELS 3 Zrotation Yrotation Xrotation
									JOINT LeftHandThumb1
									{
										OFFSET 2.867323 3.959563 2.944291
										CHANNELS 3 Zrotation Yrotation Xrotation
										JOINT LeftHandThumb2
										{
											OFFSET -0.000000 3.350399 0.000000
											CHANNELS 3 Zrotation Yrotation Xrotation
											JOINT LeftHandThumb3
											{
												OFFSET 0.000000 3.756509 -0.000000
												CHANNELS 3 Zrotation Yrotation Xrotation
												JOINT LeftHandThumb4
												{
													OFFSET 0.000000 3.100000 -0.000000
													CHANNELS 3 Zrotation Yrotation Xrotation
													End Site
													{
														OFFSET 0.000000 0.000000 0.000000
													}
												}
											}
										}
									}
									JOINT LeftHandIndex1
									{
										OFFSET 0.086752 10.030893 2.345280
										CHANNELS 3 Zrotation Yrotation Xrotation
										JOINT LeftHandIndex2
										{
											OFFSET -0.000000 4.061090 -0.000000
											CHANNELS 3 Zrotation Yrotation Xrotation
											JOINT LeftHandIndex3
											{
												OFFSET -0.000000 3.248873 0.000000
												CHANNELS 3 Zrotation Yrotation Xrotation
												JOINT LeftHandIndex4
												{
													OFFSET -0.000000 2.639709 0.000000
													CHANNELS 3 Zrotation Yrotation Xrotation
													End Site
													{
														OFFSET 0.000000 0.000000 0.000000
													}
												}
											}
										}
									}
									JOINT LeftHandMiddle1
									{
										OFFSET -0.104102 9.502952 0.006768
										CHANNELS 3 Zrotation Yrotation Xrotation
										JOINT LeftHandMiddle2
										{
											OFFSET 0.000000 4.568727 -0.000000
											CHANNELS 3 Zrotation Yrotation Xrotation
											JOINT LeftHandMiddle3
											{
												OFFSET -0.000000 3.654981 0.000000
												CHANNELS 3 Zrotation Yrotation Xrotation
												JOINT LeftHandMiddle4
												{
													OFFSET -0.000000 2.741236 0.000000
													CHANNELS 3 Zrotation Yrotation Xrotation
													End Site
													{
														OFFSET 0.000000 0.000000 0.000000
													}
												}
											}
										}
									}
									JOINT LeftHandRing1
									{
										OFFSET -0.086752 8.921708 -2.267442
										CHANNELS 3 Zrotation Yrotation Xrotation
										JOINT LeftHandRing2
										{
											OFFSET -0.000000 4.061090 -0.000000
											CHANNELS 3 Zrotation Yrotation Xrotation
											JOINT LeftHandRing3
											{
												OFFSET 0.000000 3.654981 -0.000000
												CHANNELS 3 Zrotation Yrotation Xrotation
												JOINT LeftHandRing4
												{
													OFFSET 0.000000 2.741236 -0.000000
													CHANNELS 3 Zrotation Yrotation Xrotation
													End Site
													{
														OFFSET 0.000000 0.000000 0.000000
													}
												}
											}
										}
									}
									JOINT LeftHandPinky1
									{
										OFFSET 0.173504 7.976997 -4.467199
										CHANNELS 3 Zrotation Yrotation Xrotation
										JOINT LeftHandPinky2
										{
											OFFSET 0.000000 3.350399 -0.000000
											CHANNELS 3 Zrotation Yrotation Xrotation
											JOINT LeftHandPinky3
											{
												OFFSET -0.000000 2.842763 0.000000
												CHANNELS 3 Zrotation Yrotation Xrotation
												JOINT LeftHandPinky4
												{
													OFFSET -0.000000 2.639709 -0.000000
													CHANNELS 3 Zrotation Yrotation Xrotation
													End Site
													{
														OFFSET 0.000000 0.000000 0.000000
													}
												}
											}
										}
									}
									JOINT LeftForeArmEnd
									{
										OFFSET 0.000000 0.000000 0.000000
										CHANNELS 3 Zrotation Yrotation Xrotation
										End Site
										{
											OFFSET 0.000000 0.000000 0.000000
										}
									}
								}
								JOINT LeftArmEnd
								{
									OFFSET 0.000000 0.000000 0.000000
									CHANNELS 3 Zrotation Yrotation Xrotation
									End Site
									{
										OFFSET 0.000000 0.000000 0.000000
									}
								}
							}
						}
					}
				}
			}
		}
	}
	JOINT RightUpLeg
	{
		OFFSET -11.289943 0.000000 0.000000
		CHANNELS 3 Zrotation Yrotation Xrotation
		JOINT RightLeg
		{
			OFFSET 0.000000 -38.200325 0.000000
			CHANNELS 3 Zrotation Yrotation Xrotation
			JOINT RightFoot
			{
				OFFSET -0.000000 -39.900856 -0.000000
				CHANNELS 3 Zrotation Yrotation Xrotation
				JOINT RightToeBase
				{
					OFFSET 0.000000 0.000000 15.261641
					CHANNELS 3 Zrotation Yrotation Xrotation
					JOINT RightToeBaseEnd
					{
						OFFSET -0.000000 -0.000000 7.370709
						CHANNELS 3 Zrotation Yrotation Xrotation
						End Site
						{
							OFFSET 0.000000 0.000000 0.000000
						}
					}
				}
				JOINT RightLegEnd
				{
					OFFSET 0.000000 0.000000 0.000000
					CHANNELS 3 Zrotation Yrotation Xrotation
					End Site
					{
						OFFSET 0.000000 0.000000 0.000000
					}
				}
			}
			JOINT RightUpLegEnd
			{
				OFFSET 0.000000 0.000000 0.000000
				CHANNELS 3 Zrotation Yrotation Xrotation
				End Site
				{
					OFFSET 0.000000 0.000000 0.000000
				}
			}
		}
	}
	JOINT LeftUpLeg
	{
		OFFSET 11.315661 0.000000 -0.000000
		CHANNELS 3 Zrotation Yrotation Xrotation
		JOINT LeftLeg
		{
			OFFSET 0.000000 -38.200325 -0.000000
			CHANNELS 3 Zrotation Yrotation Xrotation
			JOINT LeftFoot
			{
				OFFSET 0.000000 -39.900856 0.000000
				CHANNELS 3 Zrotation Yrotation Xrotation
				JOINT LeftToeBase
				{
					OFFSET 0.000000 -0.000000 15.261641
					CHANNELS 3 Zrotation Yrotation Xrotation
					JOINT LeftToeBaseEnd
					{
						OFFSET 0.000000 0.000000 7.539996
						CHANNELS 3 Zrotation Yrotation Xrotation
						End Site
						{
							OFFSET 0.000000 0.000000 0.000000
						}
					}
				}
				JOINT LeftLegEnd
				{
					OFFSET 0.000000 0.000000 0.000000
					CHANNELS 3 Zrotation Yrotation Xrotation
					End Site
					{
						OFFSET 0.000000 0.000000 0.000000
					}
				}
			}
			JOINT LeftUpLegEnd
			{
				OFFSET 0.000000 0.000000 0.000000
				CHANNELS 3 Zrotation Yrotation Xrotation
				End Site
				{
					OFFSET 0.000000 0.000000 0.000000
				}
			}
		}
	}
}
MOTION
Frames: 4
Frame Time: 0.016667
-0.726467 86.094116 2.458319 0.697220 0.050164 -4.115038 -1.611020 0.159243 2.793886 -2.420402 0.923647 3.545566 1.865655 0.325426 4.404910 1.721636 0.341760 0.368395 -5.247568 -1.410224 4.708095 4.181181 -0.731303 -10.822804 0.416846 -3.749492 -24.496868 0.000000 0.000000 0.000000 91.507637 -0.136204 4.460175 68.862198 -26.242502 -7.178619 0.432669 9.097328 37.490204 -16.306744 14.763668 -13.652289 18.137814 -2.066986 36.797237 0.000000 0.000000 -43.919994 0.000000 0.000000 -30.500000 0.000000 0.000000 0.000000 48.339630 16.059713 -19.679314 36.127151 2.378605 -10.330325 36.155807 3.186174 -9.739853 0.000000 0.000000 0.000000 53.628094 6.737154 -15.825732 38.622334 0.537953 -4.386720 38.632462 1.319182 -3.762391 0.000000 0.000000 0.000000 63.864429 -8.916574 -7.871126 43.438923 -0.480623 6.221310 43.467903 -1.932560 4.845513 0.000000 0.000000 0.000000 65.682602 -25.993059 1.420813 42.273277 -3.237140 18.544205 42.495754 -6.192239 15.838936 0.000000 0.000000 0.000000 0.000000 0.000000 0.000000 0.000000 0.000000 0.000000 -91.280815 0.123410 4.215776 -68.143044 30.548340 -6.924268 -5.008564 -21.273729 49.813923 -0.740647 -4.904542 -19.385849 -16.637400 2.084625 37.370117 0.000000 0.000001 -40.320000 0.000000 0.000000 -28.000000 0.000000 0.000000 0.000000 -46.780689 16.763063 -9.860199 -29.434412 1.262313 8.596187 -29.448988 2.133174 8.104438 0.000000 0.000000 0.000000 -45.967453 6.912314 -9.122982 -31.210783 0.017183 3.640679 -31.214800 0.872438 3.122450 0.000000 0.000000 0.000000 -48.424347 -8.960072 -5.443507 -34.200459 0.435666 -5.082530 -34.208145 -1.218464 -3.958251 0.000000 0.000000 0.000000 -50.506653 -25.993116 -1.415079 -32.835598 -0.400531 -14.854526 -32.914494 -3.760359 -12.682167 0.000000 0.000000 0.000000 0.000000 0.000000 0.000000 0.000000 0.000000 0.000000 -5.959748 5.044161 -7.373058 -0.385849 -0.753747 27.014761 -0.712697 -2.221114 12.229920 -0.135308 -1.289731 -32.223724 0.000000 0.000000 0.000000 0.000000 0.000000 0.000000 0.000000 0.000000 0.000000 -4.857602 -4.562266 -2.434762 0.239464 0.484800 26.287207 6.170369 12.018026 10.501754 -0.117777 1.001812 -30.240299 0.000000 0.000000 0.000000 0.000000 0.000000 0.000000 0.000000 0.000000 0.000000 
-0.525387 85.721283 2.245620 0.631708 0.351781 -7.817473 -1.301291 0.274645 5.982928 -3.209339 1.060238 5.883232 1.894037 0.174471 4.335140 1.286728 0.408401 -0.396345 -4.424871 0.501058 2.295073 3.812985 2.292522 -10.770929 -0.070152 -3.168725 -20.751297 0.000000 0.000000 0.000000 91.560097 0.091726 3.738869 69.753532 -27.153143 -3.415127 1.080986 14.175413 34.440228 -15.678044 13.771454 -13.645366 18.453535 -2.062776 36.683338 0.000003 0.000019 -44.713535 -0.000000 0.000021 -31.281937 -0.000012 -0.000009 -0.000014 48.484268 16.604601 -19.751541 35.374897 2.048848 -10.842211 35.739689 2.898016 -9.879861 -0.000010 -0.000020 -0.000028 52.919865 6.712950 -15.695101 37.405308 0.265631 -4.441549 37.530384 1.028476 -3.706752 0.000040 0.000124 0.000016 60.905258 -8.706081 -7.477681 41.716801 -0.110694 6.137411 41.677948 -1.455163 4.709810 0.000001 -0.001299 -0.000005 61.519531 -25.288847 -0.260815 39.120476 -1.944654 17.658844 39.247971 -4.825524 14.764235 0.000026 -0.000004 0.000043 0.000000 0.000000 0.000000 0.000000 0.000000 0.000000 -92.344887 -0.135673 4.246808 -67.895363 28.588070 -5.050880 -4.130369 -21.667990 46.493927 -1.122491 -6.115870 -18.706139 -15.917701 1.987535 37.806854 -0.000006 0.000013 -38.330788 0.000005 -0.000002 -26.514008 -0.000641 -0.000017 0.001974 -44.402809 17.061974 -7.634470 -28.107677 1.096316 9.303729 -28.321814 1.982763 8.496950 0.000024 0.000510 0.000020 -43.553860 6.983894 -7.005065 -29.634901 -0.143659 3.773176 -29.402620 0.664318 3.157207 0.000103 -0.000059 0.000162 -45.969067 -8.921679 -4.646103 -32.650719 0.604964 -5.111483 -32.565269 -0.924431 -3.868587 0.000209 0.000005 0.000002 -45.972267 -25.278208 -4.265173 -30.936602 0.377796 -14.294618 -30.882832 -2.820385 -11.708449 0.000150 -0.000013 -0.000025 0.000000 0.000000 0.000000 0.000000 0.000000 0.000000 -6.160715 3.126966 -4.734633 -0.328979 -0.541042 28.199333 -0.998649 -1.824527 15.966956 -0.048163 -1.014356 -30.455269 0.000000 0.000000 0.000000 0.000000 0.000000 0.000000 0.000000 0.000000 0.000000 -5.126870 -2.446279 0.935388 0.158837 0.251151 25.121168 5.447909 10.972247 10.290366 -0.438070 0.733841 -30.002619 0.000000 0.000000 0.000000 0.000000 0.000000 0.000000 0.000000 0.000000 0.000000 
-0.322311 85.683411 2.232322 0.731123 0.532591 -7.871253 -1.538849 0.348451 5.998597 -3.301776 1.103230 5.889497 1.953105 0.050197 4.424668 1.432758 0.337047 -0.333694 -4.696553 0.640841 2.613883 3.861724 2.289145 -10.662889 -0.115407 -3.226249 -20.835579 0.000000 0.000000 0.000000 91.664955 0.093436 3.709359 69.740707 -26.751123 -3.253635 1.102278 14.355529 34.697830 -15.623775 13.635360 -13.663620 18.162096 -2.065392 36.795197 0.000007 0.000021 -44.054089 -0.000002 0.000021 -30.806587 0.000001 -0.000006 -0.000015 47.443977 16.580269 -19.766905 34.734062 1.966380 -10.623120 35.124638 2.819322 -9.692433 -0.000003 -0.000009 -0.000021 51.934452 6.709265 -15.781183 36.783417 0.236754 -4.357036 36.908142 1.002217 -3.636408 0.000039 0.000110 0.000011 60.040569 -8.691948 -7.736237 41.120106 -0.060015 6.022285 41.091877 -1.417856 4.623662 0.000000 -0.001509 -0.000006 60.790886 -25.227318 -0.626070 38.688725 -1.790045 17.326019 38.778339 -4.692669 14.486959 0.000082 0.000005 0.000038 0.000000 0.000000 0.000000 0.000000 0.000000 0.000000 -92.409470 -0.136033 4.336079 -67.848969 28.788774 -5.050365 -4.155129 -21.186159 46.207657 -0.709069 -5.237541 -18.862057 -15.816409 1.992780 37.830990 -0.000004 0.000015 -38.127434 -0.000021 0.000001 -26.368715 -0.000666 -0.000010 0.002263 -44.141281 16.940956 -8.079589 -27.778522 1.039605 9.106941 -28.023443 1.926259 8.317836 0.000040 0.000254 0.000019 -43.234554 6.942286 -7.454609 -29.301643 -0.163677 3.692249 -29.088657 0.646102 3.092826 0.000191 -0.000064 0.000099 -45.736900 -8.869103 -4.972527 -32.424225 0.634901 -5.005641 -32.334690 -0.900357 -3.790387 0.000328 0.000009 0.000004 -45.846333 -25.166605 -4.420319 -30.835279 0.462848 -13.995404 -30.751644 -2.745192 -11.471230 0.000103 0.000004 -0.000038 0.000000 0.000000 0.000000 0.000000 0.000000 0.000000 -6.392066 3.103251 -4.957211 -0.324905 -0.540576 28.631123 -0.821489 -2.015574 15.799839 -0.027236 -1.045520 -30.530817 0.000000 0.000000 0.000000 0.000000 0.000000 0.000000 0.000000 0.000000 0.000000 -5.296886 -2.226775 1.297406 0.159720 0.258570 24.287663 5.691213 10.707804 10.447089 -0.408301 0.748769 -29.973207 0.000000 0.000000 0.000000 0.000000 0.000000 0.000000 0.000000 0.000000 0.000000 
-0.143978 85.649765 2.231677 0.789921 0.660209 -7.947479 -1.742866 0.400244 6.032455 -3.416208 1.155262 5.889992 2.018173 -0.050354 4.504732 1.561228 0.273258 -0.212733 -4.929102 0.777709 2.831254 3.912444 2.287468 -10.571472 -0.157818 -3.258511 -20.917906 0.000000 0.000000 0.000000 91.711136 0.103526 3.733408 69.742226 -26.631521 -2.986583 1.118175 14.412378 34.503601 -15.626661 13.768841 -13.541659 17.871153 -2.068484 36.912556 0.000009 0.000020 -43.377926 -0.000002 0.000023 -30.314993 0.000001 -0.000006 -0.000015 46.351002 16.558798 -19.797642 34.054569 1.899805 -10.446982 34.465206 2.756263 -9.540500 -0.000004 -0.000011 -0.000019 50.902069 6.708169 -15.892033 36.118164 0.212740 -4.288117 36.235786 0.981025 -3.579932 0.000036 0.000104 0.000013 59.098583 -8.684054 -7.980672 40.462700 -0.016968 5.928993 40.444973 -1.387127 4.554182 0.000003 -0.001633 -0.000005 59.931396 -25.171928 -0.953683 38.171814 -1.663984 17.054546 38.229275 -4.584931 14.264603 0.000087 0.000005 0.000027 0.000000 0.000000 0.000000 0.000000 0.000000 0.000000 -92.314331 -0.131265 4.495721 -67.861382 29.378082 -4.908802 -4.179499 -20.748993 45.909554 -0.482844 -4.291643 -18.868654 -15.732226 1.999142 37.844788 -0.000006 0.000014 -37.977821 -0.000034 -0.000000 -26.256647 -0.000562 -0.000012 0.002143 -43.943047 16.858391 -8.462580 -27.586334 0.995907 8.940394 -27.852884 1.881776 8.169388 0.000041 0.000188 0.000021 -43.021957 6.908518 -7.856285 -29.111853 -0.178602 3.623986 -28.916666 0.631545 3.038458 0.000237 -0.000068 0.000066 -45.668224 -8.813237 -5.254719 -32.349220 0.655685 -4.921036 -32.256245 -0.881543 -3.726815 0.000336 0.000009 0.000005 -45.901310 -25.022636 -4.563972 -30.884434 0.525782 -13.758883 -30.777769 -2.684888 -11.281779 0.000122 0.000004 -0.000037 0.000000 0.000000 0.000000 0.000000 0.000000 0.000000 -6.582054 3.069314 -5.099502 -0.322820 -0.532690 29.039961 -0.682367 -2.225678 15.641199 -0.008020 -1.067027 -30.577915 0.000000 0.000000 0.000000 0.000000 0.000000 0.000000 0.000000 0.000000 0.000000 -5.387576 -2.041517 1.487040 0.160003 0.262841 23.782824 5.934844 10.471254 10.523321 -0.377475 0.769047 -29.914967 0.000000 0.000000 0.000000 0.000000 0.000000 0.000000 0.000000 0.000000 0.000000 
